PathFileType	4	(X/Y/Z)	traj.trc
DataRate	CameraRate	NumFrames	NumMarkers	Units	OrigDataRate	OrigDataStartFrame	OrigNumFrames
30.00	30.00	50	1	mm	30.00	1	50
Frame#	Time	wrist		
		X1	Y1	Z1

0	0.0	300.0	700.0	200.0
1	0.02040816326530612	300.0	700.0	200.0
2	0.04081632653061224	300.0119900062465	699.9880099937534	200.0
3	0.061224489795918366	300.0699625190878	699.9300374809121	200.0
4	0.08163265306122448	300.21504992106406	699.7849500789359	200.0
5	0.1020408163265306	300.4827642792873	699.5172357207125	200.0
6	0.12244897959183673	300.90324713723857	699.0967528627614	200.0
7	0.14285714285714285	301.5015193065641	698.4984806934359	200.0
8	0.16326530612244897	302.29773065887264	697.7022693411272	200.0
9	0.18367346938775508	303.30740991753225	696.6925900824676	200.0
10	0.2040816326530612	304.54171444946667	695.4582855505332	200.0
11	0.22448979591836732	306.0076800569525	693.9923199430474	200.0
12	0.24489795918367346	307.708470769416	692.291529230584	200.0
13	0.26530612244897955	309.64362863522956	690.3563713647703	200.0
14	0.2857142857142857	311.80932351350896	688.190676486491	200.0
15	0.3061224489795918	314.19860286590983	685.8013971340902	200.0
16	0.32653061224489793	316.80164154842464	683.1983584515752	200.0
17	0.3469387755102041	319.60599160317935	680.3940083968206	200.0
18	0.36734693877551017	322.5968320502303	677.4031679497696	200.0
19	0.3877551020408163	325.7572186793612	674.2427813206388	200.0
20	0.4081632653061224	329.06833384187934	670.9316661581206	200.0
21	0.42857142857142855	332.5097362424132	667.4902637575868	200.0
22	0.44897959183673464	336.05961073070864	663.9403892692914	200.0
23	0.4693877551020408	339.695018093426	660.3049819065741	200.0
24	0.4897959183673469	343.39214484593657	656.6078551540634	200.0
25	0.5102040816326531	347.12655302411997	652.87344697588	200.0
26	0.5306122448979591	350.8734299761605	649.1265700238395	200.0
27	0.5510204081632653	354.60783815434394	645.3921618456561	200.0
28	0.5714285714285714	358.30496490685454	641.6950350931454	200.0
29	0.5918367346938775	361.9403722695718	638.0596277304281	200.0
30	0.6122448979591836	365.4902467578673	634.5097532421327	200.0
31	0.6326530612244897	368.93164915840117	631.0683508415989	200.0
32	0.6530612244897959	372.2427643209193	627.7572356790806	200.0
33	0.673469387755102	375.4031509500502	624.5968490499498	200.0
34	0.6938775510204082	378.3939913971011	621.6060086028988	200.0
35	0.7142857142857142	381.1983414518558	618.8016585481441	200.0
36	0.7346938775510203	383.8013801343707	616.1986198656294	200.0
37	0.7551020408163265	386.19065948677155	613.8093405132284	200.0
38	0.7755102040816326	388.35635436505095	611.643645634949	200.0
39	0.7959183673469387	390.2915122308645	609.7084877691354	200.0
40	0.8163265306122448	391.992302943328	608.007697056672	200.0
41	0.836734693877551	393.4582685508138	606.5417314491863	200.0
42	0.8571428571428571	394.6925730827482	605.3074269172519	200.0
43	0.8775510204081632	395.70225234140776	604.2977476585922	200.0
44	0.8979591836734693	396.49846369371636	603.5015363062837	200.0
45	0.9183673469387754	397.0967358630419	602.903264136958	200.0
46	0.9387755102040816	397.5172187209931	602.4827812790069	200.0
47	0.9591836734693877	397.78493307921644	602.2150669207837	200.0
48	0.9795918367346939	397.9300204811926	602.0699795188074	200.0
49	1.0	397.9879929940339	602.012007005966	200.0
